<?xml version="1.0" standalone="no"?>
<!DOCTYPE svg PUBLIC "-//W3C//DTD SVG 20010904//EN"
 "http://www.w3.org/TR/2001/REC-SVG-20010904/DTD/svg10.dtd">
<svg version="1.0" xmlns="http://www.w3.org/2000/svg"
 width="2560.000000pt" height="614.000000pt" viewBox="0 0 2560.000000 614.000000"
 preserveAspectRatio="xMidYMid meet">

<g transform="translate(0.000000,614.000000) scale(0.100000,-0.100000)"
fill="#000000" stroke="none">
<path d="M805 6130 c-394 -55 -703 -345 -781 -729 -22 -113 -15 -314 15 -419
76 -262 248 -465 492 -582 138 -65 220 -83 389 -83 118 0 160 4 225 22 286 77
521 286 625 553 60 154 77 356 44 516 -70 342 -340 622 -675 702 -97 23 -249
32 -334 20z"/>
<path d="M2935 6126 c-279 -45 -523 -215 -659 -459 -78 -140 -124 -341 -112
-496 29 -406 295 -728 686 -832 122 -32 328 -32 450 0 374 100 637 404 682
791 47 399 -193 793 -574 944 -138 54 -330 76 -473 52z"/>
<path d="M5115 6130 c-388 -51 -701 -341 -779 -722 -31 -149 -18 -344 32 -488
100 -288 349 -509 658 -587 104 -26 323 -23 429 6 321 86 565 327 657 648 31
106 33 352 4 457 -27 100 -68 196 -119 274 -147 227 -388 378 -658 412 -93 11
-136 11 -224 0z"/>
<path d="M20920 4407 c-127 -36 -208 -137 -218 -268 -9 -122 52 -229 162 -287
71 -37 188 -39 260 -3 186 92 229 336 83 479 -76 75 -191 106 -287 79z"/>
<path d="M17072 4100 l-191 -290 212 0 212 0 220 266 c121 146 228 276 238
290 l19 24 -260 0 -259 0 -191 -290z"/>
<path d="M15405 4324 c-161 -34 -254 -91 -326 -197 -68 -103 -81 -162 -87
-399 l-4 -208 -169 0 -169 0 0 -245 0 -245 170 0 170 0 0 -790 0 -790 255 0
255 0 0 790 0 790 220 0 220 0 0 245 0 245 -220 0 -220 0 0 134 c0 122 2 136
23 167 40 61 71 69 255 69 l162 0 0 220 0 220 -257 -1 c-142 -1 -267 -3 -278
-5z"/>
<path d="M7250 4040 l0 -250 425 0 425 0 0 -1170 0 -1170 260 0 260 0 2 1168
3 1167 428 3 427 2 0 250 0 250 -1115 0 -1115 0 0 -250z"/>
<path d="M11640 2870 l0 -1420 250 0 250 0 0 1420 0 1420 -250 0 -250 0 0
-1420z"/>
<path d="M2885 3963 c-215 -46 -424 -182 -551 -359 -58 -81 -119 -211 -145
-309 -18 -65 -22 -108 -22 -225 0 -169 18 -252 83 -389 77 -160 187 -285 336
-380 242 -156 551 -185 828 -79 149 58 321 195 416 333 50 73 108 204 132 301
30 124 30 304 0 428 -24 97 -82 228 -132 301 -130 189 -347 333 -572 379 -96
20 -279 20 -373 -1z"/>
<path d="M10168 3550 c-165 -21 -355 -93 -482 -184 -74 -53 -198 -181 -247
-256 -208 -315 -238 -771 -75 -1116 107 -227 262 -383 483 -486 231 -108 549
-129 797 -52 213 67 403 211 523 397 43 65 93 167 93 187 0 6 -98 10 -259 10
l-258 0 -27 -38 c-14 -21 -48 -54 -74 -75 -207 -157 -515 -139 -704 41 -87 82
-141 182 -172 315 l-6 27 775 0 c613 0 775 3 775 13 0 6 5 52 11 101 8 66 8
119 0 198 -49 461 -356 810 -796 904 -86 18 -267 26 -357 14z m301 -439 c84
-26 137 -59 202 -128 61 -63 107 -144 133 -232 30 -101 88 -91 -514 -91 -291
0 -530 4 -530 8 0 21 42 128 72 183 66 125 170 212 303 255 93 31 245 33 334
5z"/>
<path d="M13355 3549 c-341 -44 -633 -247 -782 -544 -82 -163 -117 -317 -117
-520 0 -223 51 -419 151 -589 67 -114 229 -274 345 -342 105 -62 270 -118 393
-135 121 -16 326 -6 433 20 303 76 565 303 671 584 l11 27 -264 0 -263 0 -14
-26 c-20 -39 -96 -102 -161 -135 -218 -110 -502 -58 -659 119 -67 77 -139 227
-139 292 0 20 3 20 770 20 l769 0 8 38 c4 20 8 102 8 182 -1 157 -19 255 -71
388 -85 216 -273 421 -481 526 -171 86 -398 121 -608 95z m306 -439 c111 -34
198 -102 264 -204 36 -57 85 -184 85 -222 l0 -24 -530 0 -530 0 6 28 c14 61
69 176 109 231 104 141 246 210 431 211 74 0 120 -5 165 -20z"/>
<path d="M16935 3550 c-411 -59 -708 -294 -841 -666 -47 -130 -65 -243 -65
-406 0 -517 289 -906 769 -1035 88 -24 114 -27 282 -27 169 0 194 3 285 27
401 107 679 414 751 832 25 138 15 389 -20 514 -36 130 -73 214 -139 315 -140
214 -366 369 -624 426 -100 23 -308 33 -398 20z m275 -471 c121 -28 249 -121
322 -233 118 -182 130 -467 28 -673 -176 -357 -672 -406 -906 -91 -89 120
-124 231 -124 399 0 185 50 325 159 441 109 116 225 166 386 167 50 0 110 -4
135 -10z"/>
<path d="M19394 3546 c-40 -8 -89 -19 -110 -26 -78 -25 -191 -91 -257 -151
-46 -42 -71 -58 -76 -50 -4 6 -15 54 -25 106 l-18 95 -232 -2 -231 -3 -3
-1032 -2 -1033 255 0 255 0 0 633 c0 540 2 642 16 692 32 124 109 217 223 272
69 34 85 37 182 41 89 4 119 1 177 -17 89 -27 171 -88 222 -164 77 -115 74
-85 78 -809 l3 -648 250 0 250 0 -4 703 c-4 770 -3 753 -67 913 -95 238 -279
400 -525 464 -103 27 -266 34 -361 16z"/>
<path d="M22465 3549 c-349 -48 -632 -246 -785 -549 -146 -289 -155 -672 -25
-982 76 -179 237 -363 408 -464 104 -62 269 -118 392 -135 110 -14 325 -6 413
15 279 69 486 235 620 499 33 64 65 151 97 265 l6 22 -254 0 -254 0 -11 -38
c-17 -57 -82 -151 -136 -199 -194 -171 -528 -141 -716 63 -101 111 -153 261
-153 439 0 276 133 487 361 576 87 34 264 39 352 9 125 -42 221 -126 277 -242
l28 -58 252 0 252 0 -20 73 c-29 107 -119 280 -192 372 -134 166 -313 274
-532 321 -88 19 -289 26 -380 13z"/>
<path d="M24593 3549 c-347 -33 -615 -230 -711 -524 -11 -33 -23 -77 -26 -98
l-7 -37 252 2 252 3 15 43 c19 57 101 145 165 176 109 53 263 54 366 2 119
-61 191 -191 191 -346 l0 -50 -302 0 c-322 0 -422 -9 -548 -51 -142 -46 -266
-128 -339 -223 -150 -194 -173 -500 -54 -705 91 -158 261 -273 465 -315 99
-21 295 -21 393 -1 139 29 282 103 364 189 19 20 40 36 47 36 7 0 17 -23 23
-50 6 -28 16 -72 22 -100 l11 -50 209 0 210 0 -3 738 -3 737 -24 70 c-107 321
-366 517 -732 555 -110 11 -116 11 -236 -1z m494 -1301 c-12 -193 -90 -318
-242 -389 -82 -39 -161 -52 -275 -47 -157 8 -251 68 -285 182 -47 158 36 289
210 332 33 8 142 13 324 13 l274 1 -6 -92z"/>
<path d="M20750 2485 l0 -1035 250 0 250 0 0 1035 0 1035 -250 0 -250 0 0
-1035z"/>
<path d="M2938 1820 c-364 -58 -663 -331 -748 -682 -43 -178 -36 -339 21 -513
56 -167 156 -311 292 -420 494 -395 1228 -182 1434 415 173 504 -121 1048
-637 1180 -96 25 -272 34 -362 20z"/>
</g>
</svg>
