<?xml version="1.0" encoding="UTF-8"?>
<!DOCTYPE svg PUBLIC "-//W3C//DTD SVG 1.1//EN" "http://www.w3.org/Graphics/SVG/1.1/DTD/svg11.dtd">
<svg xmlns="http://www.w3.org/2000/svg" version="1.1" width="2560px" height="614px" style="shape-rendering:geometricPrecision; text-rendering:geometricPrecision; image-rendering:optimizeQuality; fill-rule:evenodd; clip-rule:evenodd" xmlns:xlink="http://www.w3.org/1999/xlink">
<g><path style="opacity:0.99" fill="#0065ff" d="M 77.5,-0.5 C 86.8333,-0.5 96.1667,-0.5 105.5,-0.5C 141.374,6.53043 165.874,27.1971 179,61.5C 191.126,107.14 177.959,143.306 139.5,170C 103.249,189.395 68.2487,187.395 34.5,164C 14.9675,147.97 3.30087,127.47 -0.5,102.5C -0.5,95.1667 -0.5,87.8333 -0.5,80.5C 7.80869,36.5237 33.8087,9.52369 77.5,-0.5 Z"/></g>
<g><path style="opacity:0.99" fill="#0065ff" d="M 293.5,-0.5 C 302.5,-0.5 311.5,-0.5 320.5,-0.5C 363.033,8.19914 388.866,33.8658 398,76.5C 402.665,122.347 384.498,155.514 343.5,176C 302.038,190.842 266.204,182.342 236,150.5C 207.085,110.244 207.418,70.2443 237,30.5C 252.541,13.9829 271.375,3.64956 293.5,-0.5 Z"/></g>
<g><path style="opacity:0.991" fill="#0065ff" d="M 508.5,-0.5 C 517.833,-0.5 527.167,-0.5 536.5,-0.5C 573.958,7.11863 598.792,29.1186 611,65.5C 621.539,115.914 604.039,152.747 558.5,176C 522.133,189.391 489.133,183.724 459.5,159C 427.87,125.265 422.037,87.4312 442,45.5C 457.449,20.366 479.616,5.03265 508.5,-0.5 Z"/></g>
<g><path style="opacity:0.971" fill="#0065ff" d="M 2097.5,170.5 C 2121.29,172.734 2131.79,185.734 2129,209.5C 2121.98,227.829 2108.82,234.996 2089.5,231C 2068.57,220.474 2063.4,204.641 2074,183.5C 2080.14,175.851 2087.98,171.518 2097.5,170.5 Z"/></g>
<g><path style="opacity:0.959" fill="#0066ff" d="M 1725.5,173.5 C 1743.5,173.333 1761.5,173.5 1779.5,174C 1763.17,193.667 1746.83,213.333 1730.5,233C 1715.82,233.833 1701.16,233.666 1686.5,232.5C 1699.26,212.633 1712.26,192.967 1725.5,173.5 Z"/></g>
<g><path style="opacity:0.99" fill="#0065ff" d="M 1543.5,179.5 C 1560.5,179.5 1577.5,179.5 1594.5,179.5C 1594.5,194.833 1594.5,210.167 1594.5,225.5C 1583.16,225.333 1571.83,225.5 1560.5,226C 1554.09,227.739 1550.59,231.906 1550,238.5C 1549.5,246.159 1549.33,253.826 1549.5,261.5C 1564.5,261.5 1579.5,261.5 1594.5,261.5C 1594.5,277.833 1594.5,294.167 1594.5,310.5C 1579.5,310.5 1564.5,310.5 1549.5,310.5C 1549.5,363.5 1549.5,416.5 1549.5,469.5C 1532.5,469.5 1515.5,469.5 1498.5,469.5C 1498.5,416.5 1498.5,363.5 1498.5,310.5C 1486.83,310.5 1475.17,310.5 1463.5,310.5C 1463.5,294.167 1463.5,277.833 1463.5,261.5C 1475.17,261.5 1486.83,261.5 1498.5,261.5C 1498.33,247.496 1498.5,233.496 1499,219.5C 1504.24,195.419 1519.08,182.086 1543.5,179.5 Z"/></g>
<g><path style="opacity:0.975" fill="#0065ff" d="M 723.5,183.5 C 798.5,183.5 873.5,183.5 948.5,183.5C 948.5,200.833 948.5,218.167 948.5,235.5C 919.833,235.5 891.167,235.5 862.5,235.5C 862.5,313.5 862.5,391.5 862.5,469.5C 844.5,469.5 826.5,469.5 808.5,469.5C 808.5,391.5 808.5,313.5 808.5,235.5C 780.167,235.5 751.833,235.5 723.5,235.5C 723.5,218.167 723.5,200.833 723.5,183.5 Z"/></g>
<g><path style="opacity:0.973" fill="#0066ff" d="M 1162.5,183.5 C 1179.83,183.5 1197.17,183.5 1214.5,183.5C 1214.5,278.833 1214.5,374.167 1214.5,469.5C 1197.17,469.5 1179.83,469.5 1162.5,469.5C 1162.5,374.167 1162.5,278.833 1162.5,183.5 Z"/></g>
<g><path style="opacity:0.99" fill="#0065ff" d="M 296.5,214.5 C 343.182,212.413 375.682,232.746 394,275.5C 406.938,322.766 393.105,359.933 352.5,387C 311.791,406.375 274.625,401.208 241,371.5C 211.369,336.82 207.035,299.153 228,258.5C 244.092,233.369 266.926,218.702 296.5,214.5 Z"/></g>
<g><path style="opacity:0.981" fill="#0065ff" d="M 1026.5,256.5 C 1070.49,256.565 1102.66,275.898 1123,314.5C 1132.21,335.977 1135.05,358.31 1131.5,381.5C 1079.83,381.167 1028.16,381.5 976.5,382.5C 984.758,415.917 1006.09,431.417 1040.5,429C 1054.31,426.934 1064.98,420.101 1072.5,408.5C 1090.49,407.5 1108.49,407.167 1126.5,407.5C 1117.08,434.756 1099.08,454.256 1072.5,466C 1032.59,479.888 995.587,474.555 961.5,450C 936.777,427.377 924.444,399.21 924.5,365.5C 927.654,300.02 961.654,263.687 1026.5,256.5 Z M 1026.5,300.5 C 1057.07,301.071 1075.07,316.405 1080.5,346.5C 1045.83,346.833 1011.16,346.5 976.5,345.5C 983.212,319.107 999.879,304.107 1026.5,300.5 Z"/></g>
<g><path style="opacity:0.981" fill="#0065ff" d="M 1345.5,256.5 C 1396.83,257.029 1431,281.363 1448,329.5C 1452.74,346.655 1453.57,363.989 1450.5,381.5C 1399.17,381.5 1347.83,381.5 1296.5,381.5C 1300.17,405.363 1313.51,420.863 1336.5,428C 1354.67,432.234 1371,428.567 1385.5,417C 1387.83,414 1390.17,411 1392.5,408C 1410.5,407.333 1428.5,407.333 1446.5,408C 1431.37,446.75 1403.04,468.417 1361.5,473C 1322.83,476.565 1291,463.732 1266,434.5C 1244.14,402.116 1238.47,367.116 1249,329.5C 1265.26,284.066 1297.43,259.733 1345.5,256.5 Z M 1346.5,300.5 C 1376.59,301.594 1394.26,316.927 1399.5,346.5C 1364.83,346.833 1330.16,346.5 1295.5,345.5C 1302.34,318.641 1319.34,303.641 1346.5,300.5 Z"/></g>
<g><path style="opacity:0.982" fill="#0065ff" d="M 1702.5,256.5 C 1755.68,256.142 1791.18,280.809 1809,330.5C 1819.46,368.995 1813.12,404.328 1790,436.5C 1764.97,464.086 1733.81,476.252 1696.5,473C 1652.49,467.931 1622.66,444.764 1607,403.5C 1597.45,370.757 1600.12,339.091 1615,308.5C 1635.2,276.147 1664.37,258.814 1702.5,256.5 Z M 1702.5,304.5 C 1735.67,305.168 1755.17,321.835 1761,354.5C 1765.02,381.82 1755.85,403.32 1733.5,419C 1701.31,432.588 1676.48,424.421 1659,394.5C 1649.1,369.911 1651.44,346.578 1666,324.5C 1675.73,313.22 1687.9,306.553 1702.5,304.5 Z"/></g>
<g><path style="opacity:0.983" fill="#0065ff" d="M 1950.5,256.5 C 2001.04,258.869 2029.2,285.203 2035,335.5C 2035.5,380.165 2035.67,424.832 2035.5,469.5C 2018.17,469.5 2000.83,469.5 1983.5,469.5C 1983.67,427.165 1983.5,384.832 1983,342.5C 1978.26,318.426 1963.59,305.759 1939,304.5C 1917.83,305.363 1903.83,315.696 1897,335.5C 1895.52,380.12 1895.02,424.786 1895.5,469.5C 1878.17,469.5 1860.83,469.5 1843.5,469.5C 1843.5,400.167 1843.5,330.833 1843.5,261.5C 1859.5,261.5 1875.5,261.5 1891.5,261.5C 1892.19,268.294 1893.53,274.96 1895.5,281.5C 1910.56,265.801 1928.89,257.467 1950.5,256.5 Z"/></g>
<g><path style="opacity:0.981" fill="#0065ff" d="M 2256.5,256.5 C 2311.28,256.953 2345.61,283.619 2359.5,336.5C 2342.18,337.666 2324.84,337.833 2307.5,337C 2296.48,311.485 2277.15,301.152 2249.5,306C 2221.4,315.461 2207.06,335.128 2206.5,365C 2206.47,392.915 2219.13,412.249 2244.5,423C 2261.35,428.057 2277.01,425.724 2291.5,416C 2298.94,409.286 2303.94,401.119 2306.5,391.5C 2324.17,391.333 2341.84,391.5 2359.5,392C 2343.58,452.143 2304.58,478.81 2242.5,472C 2192.56,462.06 2163.73,431.894 2156,381.5C 2150.74,341.287 2162.9,307.454 2192.5,280C 2211.45,265.518 2232.78,257.685 2256.5,256.5 Z"/></g>
<g><path style="opacity:0.981" fill="#0065ff" d="M 2559.5,326.5 C 2559.5,374.167 2559.5,421.833 2559.5,469.5C 2544.83,469.5 2530.17,469.5 2515.5,469.5C 2514.53,463.143 2513.36,456.81 2512,450.5C 2511.59,450.043 2511.09,449.709 2510.5,449.5C 2499.51,461.666 2485.84,469.166 2469.5,472C 2443.29,477.072 2419.29,472.072 2397.5,457C 2377.74,438.827 2371.24,416.66 2378,390.5C 2383.82,370.013 2396.65,355.847 2416.5,348C 2423.96,345.217 2431.63,343.217 2439.5,342C 2462.13,340.589 2484.8,340.089 2507.5,340.5C 2508.01,312.513 2494.35,298.68 2466.5,299C 2450.12,300.885 2439.79,309.719 2435.5,325.5C 2418.17,325.5 2400.83,325.5 2383.5,325.5C 2391.59,285.577 2415.93,263.077 2456.5,258C 2484.53,254.068 2509.87,260.401 2532.5,277C 2547.42,290.344 2556.42,306.844 2559.5,326.5 Z M 2462.5,379.5 C 2477.5,379.5 2492.5,379.5 2507.5,379.5C 2507.63,418.189 2488.3,435.356 2449.5,431C 2430.28,425.727 2423.78,413.56 2430,394.5C 2434.12,388.016 2439.95,383.85 2447.5,382C 2452.64,381.162 2457.64,380.328 2462.5,379.5 Z"/></g>
<g><path style="opacity:0.975" fill="#0065ff" d="M 2073.5,261.5 C 2090.83,261.5 2108.17,261.5 2125.5,261.5C 2125.5,330.833 2125.5,400.167 2125.5,469.5C 2108.17,469.5 2090.83,469.5 2073.5,469.5C 2073.5,400.167 2073.5,330.833 2073.5,261.5 Z"/></g>
<g><path style="opacity:0.991" fill="#0065ff" d="M 320.5,613.5 C 311.5,613.5 302.5,613.5 293.5,613.5C 244.568,602.722 218.235,572.222 214.5,522C 216.164,482.309 234.831,453.975 270.5,437C 311.961,422.158 347.795,430.658 378,462.5C 403.448,497.319 405.781,533.652 385,571.5C 369.396,594.613 347.896,608.613 320.5,613.5 Z"/></g>
</svg>
